<svg xmlns="http://www.w3.org/2000/svg" xmlns:xlink="http://www.w3.org/1999/xlink" width="500" zoomAndPan="magnify" viewBox="0 0 375 374.999991" height="500" preserveAspectRatio="xMidYMid meet" version="1.0"><defs><g/></defs><g fill="#000000" fill-opacity="1"><g transform="translate(20.704945, 196.291482)"><g><path d="M 40.203125 -47.84375 L 23.109375 0 L 17.078125 0 L 0 -47.84375 L 6.296875 -47.84375 L 17.078125 -17.15625 C 17.796875 -15.1875 18.390625 -13.34375 18.859375 -11.625 C 19.328125 -9.90625 19.738281 -8.265625 20.09375 -6.703125 C 20.40625 -8.265625 20.804688 -9.914062 21.296875 -11.65625 C 21.796875 -13.394531 22.398438 -15.269531 23.109375 -17.28125 L 33.828125 -47.84375 Z M 40.203125 -47.84375 "/></g></g></g><g fill="#000000" fill-opacity="1"><g transform="translate(60.915968, 196.291482)"><g><path d="M 33.234375 0 L 6.5 0 L 6.5 -47.84375 L 33.234375 -47.84375 L 33.234375 -42.546875 L 12.53125 -42.546875 L 12.53125 -27.609375 L 32.03125 -27.609375 L 32.03125 -22.375 L 12.53125 -22.375 L 12.53125 -5.296875 L 33.234375 -5.296875 Z M 33.234375 0 "/></g></g></g><g fill="#000000" fill-opacity="1"><g transform="translate(98.179164, 196.291482)"><g><path d="M 19.703125 -47.84375 C 25.640625 -47.84375 30.023438 -46.710938 32.859375 -44.453125 C 35.703125 -42.203125 37.125 -38.796875 37.125 -34.234375 C 37.125 -31.691406 36.648438 -29.570312 35.703125 -27.875 C 34.765625 -26.175781 33.570312 -24.8125 32.125 -23.78125 C 30.675781 -22.757812 29.144531 -21.976562 27.53125 -21.4375 L 40.671875 0 L 33.640625 0 L 22.046875 -19.765625 L 12.53125 -19.765625 L 12.53125 0 L 6.5 0 L 6.5 -47.84375 Z M 19.359375 -42.609375 L 12.53125 -42.609375 L 12.53125 -24.859375 L 19.703125 -24.859375 C 23.585938 -24.859375 26.421875 -25.628906 28.203125 -27.171875 C 29.992188 -28.710938 30.890625 -30.976562 30.890625 -33.96875 C 30.890625 -37.09375 29.953125 -39.3125 28.078125 -40.625 C 26.203125 -41.945312 23.296875 -42.609375 19.359375 -42.609375 Z M 19.359375 -42.609375 "/></g></g></g><g fill="#000000" fill-opacity="1"><g transform="translate(139.864094, 196.291482)"><g><path d="M 33.640625 -12.796875 C 33.640625 -8.554688 32.097656 -5.25 29.015625 -2.875 C 25.929688 -0.507812 21.773438 0.671875 16.546875 0.671875 C 13.867188 0.671875 11.390625 0.46875 9.109375 0.0625 C 6.828125 -0.332031 4.929688 -0.890625 3.421875 -1.609375 L 3.421875 -7.375 C 5.023438 -6.65625 7.019531 -6.003906 9.40625 -5.421875 C 11.800781 -4.847656 14.269531 -4.5625 16.8125 -4.5625 C 20.34375 -4.5625 23.023438 -5.25 24.859375 -6.625 C 26.691406 -8.007812 27.609375 -9.890625 27.609375 -12.265625 C 27.609375 -13.828125 27.269531 -15.144531 26.59375 -16.21875 C 25.925781 -17.289062 24.765625 -18.269531 23.109375 -19.15625 C 21.460938 -20.050781 19.207031 -21.035156 16.34375 -22.109375 C 12.238281 -23.585938 9.15625 -25.394531 7.09375 -27.53125 C 5.039062 -29.675781 4.015625 -32.601562 4.015625 -36.3125 C 4.015625 -38.8125 4.660156 -40.976562 5.953125 -42.8125 C 7.253906 -44.644531 9.039062 -46.050781 11.3125 -47.03125 C 13.59375 -48.019531 16.253906 -48.515625 19.296875 -48.515625 C 21.890625 -48.515625 24.28125 -48.265625 26.46875 -47.765625 C 28.65625 -47.273438 30.664062 -46.628906 32.5 -45.828125 L 30.625 -40.671875 C 28.96875 -41.378906 27.15625 -41.976562 25.1875 -42.46875 C 23.226562 -42.96875 21.21875 -43.21875 19.15625 -43.21875 C 16.164062 -43.21875 13.910156 -42.578125 12.390625 -41.296875 C 10.867188 -40.023438 10.109375 -38.34375 10.109375 -36.25 C 10.109375 -34.632812 10.441406 -33.289062 11.109375 -32.21875 C 11.785156 -31.15625 12.882812 -30.1875 14.40625 -29.3125 C 15.925781 -28.4375 17.976562 -27.53125 20.5625 -26.59375 C 23.382812 -25.570312 25.765625 -24.46875 27.703125 -23.28125 C 29.648438 -22.09375 31.125 -20.671875 32.125 -19.015625 C 33.132812 -17.367188 33.640625 -15.296875 33.640625 -12.796875 Z M 33.640625 -12.796875 "/></g></g></g><g fill="#000000" fill-opacity="1"><g transform="translate(176.658322, 196.291482)"><g><path d="M 36.515625 0 L 30.75 -14.8125 L 11.796875 -14.8125 L 6.09375 0 L 0 0 L 18.6875 -48.03125 L 24.125 -48.03125 L 42.75 0 Z M 28.9375 -20.171875 L 23.578125 -34.640625 C 23.453125 -34.992188 23.226562 -35.640625 22.90625 -36.578125 C 22.59375 -37.515625 22.289062 -38.484375 22 -39.484375 C 21.71875 -40.492188 21.488281 -41.269531 21.3125 -41.8125 C 20.945312 -40.425781 20.570312 -39.070312 20.1875 -37.75 C 19.8125 -36.4375 19.492188 -35.398438 19.234375 -34.640625 L 13.796875 -20.171875 Z M 28.9375 -20.171875 "/></g></g></g><g fill="#000000" fill-opacity="1"><g transform="translate(219.482191, 196.291482)"><g><path d="M 27.265625 -25.265625 L 43.8125 -25.265625 L 43.8125 -1.8125 C 41.226562 -0.957031 38.617188 -0.332031 35.984375 0.0625 C 33.347656 0.46875 30.351562 0.671875 27 0.671875 C 22.039062 0.671875 17.863281 -0.320312 14.46875 -2.3125 C 11.070312 -4.300781 8.492188 -7.132812 6.734375 -10.8125 C 4.972656 -14.5 4.09375 -18.867188 4.09375 -23.921875 C 4.09375 -28.878906 5.0625 -33.195312 7 -36.875 C 8.945312 -40.5625 11.769531 -43.421875 15.46875 -45.453125 C 19.175781 -47.492188 23.644531 -48.515625 28.875 -48.515625 C 31.550781 -48.515625 34.082031 -48.265625 36.46875 -47.765625 C 38.863281 -47.273438 41.085938 -46.582031 43.140625 -45.6875 L 40.875 -40.46875 C 39.175781 -41.1875 37.265625 -41.820312 35.140625 -42.375 C 33.015625 -42.9375 30.816406 -43.21875 28.546875 -43.21875 C 22.828125 -43.21875 18.367188 -41.484375 15.171875 -38.015625 C 11.984375 -34.554688 10.390625 -29.859375 10.390625 -23.921875 C 10.390625 -20.117188 11 -16.753906 12.21875 -13.828125 C 13.445312 -10.910156 15.378906 -8.632812 18.015625 -7 C 20.648438 -5.375 24.113281 -4.5625 28.40625 -4.5625 C 30.507812 -4.5625 32.296875 -4.671875 33.765625 -4.890625 C 35.242188 -5.109375 36.582031 -5.375 37.78125 -5.6875 L 37.78125 -19.90625 L 27.265625 -19.90625 Z M 27.265625 -25.265625 "/></g></g></g><g fill="#000000" fill-opacity="1"><g transform="translate(268.268695, 196.291482)"><g><path d="M 27.265625 -25.265625 L 43.8125 -25.265625 L 43.8125 -1.8125 C 41.226562 -0.957031 38.617188 -0.332031 35.984375 0.0625 C 33.347656 0.46875 30.351562 0.671875 27 0.671875 C 22.039062 0.671875 17.863281 -0.320312 14.46875 -2.3125 C 11.070312 -4.300781 8.492188 -7.132812 6.734375 -10.8125 C 4.972656 -14.5 4.09375 -18.867188 4.09375 -23.921875 C 4.09375 -28.878906 5.0625 -33.195312 7 -36.875 C 8.945312 -40.5625 11.769531 -43.421875 15.46875 -45.453125 C 19.175781 -47.492188 23.644531 -48.515625 28.875 -48.515625 C 31.550781 -48.515625 34.082031 -48.265625 36.46875 -47.765625 C 38.863281 -47.273438 41.085938 -46.582031 43.140625 -45.6875 L 40.875 -40.46875 C 39.175781 -41.1875 37.265625 -41.820312 35.140625 -42.375 C 33.015625 -42.9375 30.816406 -43.21875 28.546875 -43.21875 C 22.828125 -43.21875 18.367188 -41.484375 15.171875 -38.015625 C 11.984375 -34.554688 10.390625 -29.859375 10.390625 -23.921875 C 10.390625 -20.117188 11 -16.753906 12.21875 -13.828125 C 13.445312 -10.910156 15.378906 -8.632812 18.015625 -7 C 20.648438 -5.375 24.113281 -4.5625 28.40625 -4.5625 C 30.507812 -4.5625 32.296875 -4.671875 33.765625 -4.890625 C 35.242188 -5.109375 36.582031 -5.375 37.78125 -5.6875 L 37.78125 -19.90625 L 27.265625 -19.90625 Z M 27.265625 -25.265625 "/></g></g></g><g fill="#000000" fill-opacity="1"><g transform="translate(317.055221, 196.291482)"><g><path d="M 33.234375 0 L 6.5 0 L 6.5 -47.84375 L 33.234375 -47.84375 L 33.234375 -42.546875 L 12.53125 -42.546875 L 12.53125 -27.609375 L 32.03125 -27.609375 L 32.03125 -22.375 L 12.53125 -22.375 L 12.53125 -5.296875 L 33.234375 -5.296875 Z M 33.234375 0 "/></g></g></g><g fill="#000000" fill-opacity="1"><g transform="translate(273.42904, 223.868364)"><g><path d="M 8.546875 -1.21875 L 8.546875 0 L 1.328125 0 L 1.328125 -11.375 L 8.46875 -11.375 L 8.46875 -10.15625 L 2.84375 -10.15625 L 2.84375 -6.484375 L 7.75 -6.484375 L 7.75 -5.265625 L 2.84375 -5.265625 L 2.84375 -1.21875 Z M 8.546875 -1.21875 "/></g></g></g><g fill="#000000" fill-opacity="1"><g transform="translate(282.520569, 223.868364)"><g><path d="M 8.234375 -1.21875 L 8.234375 0 L 1.328125 0 L 1.328125 -11.375 L 2.84375 -11.375 L 2.84375 -1.21875 Z M 8.234375 -1.21875 "/></g></g></g><g fill="#000000" fill-opacity="1"><g transform="translate(291.135658, 223.868364)"><g><path d="M 8.546875 -1.21875 L 8.546875 0 L 1.328125 0 L 1.328125 -11.375 L 8.46875 -11.375 L 8.46875 -10.15625 L 2.84375 -10.15625 L 2.84375 -6.484375 L 7.75 -6.484375 L 7.75 -5.265625 L 2.84375 -5.265625 L 2.84375 -1.21875 Z M 8.546875 -1.21875 "/></g></g></g><g fill="#000000" fill-opacity="1"><g transform="translate(300.227187, 223.868364)"><g><path d="M 9.734375 -1.5 C 9.429688 -1.0625 8.960938 -0.675781 8.328125 -0.34375 C 7.703125 -0.0078125 6.828125 0.15625 5.703125 0.15625 C 4.773438 0.15625 3.953125 -0.0546875 3.234375 -0.484375 C 2.523438 -0.921875 1.96875 -1.546875 1.5625 -2.359375 C 1.15625 -3.171875 0.953125 -4.132812 0.953125 -5.25 L 0.953125 -6.140625 C 0.953125 -7.273438 1.128906 -8.242188 1.484375 -9.046875 C 1.835938 -9.847656 2.359375 -10.460938 3.046875 -10.890625 C 3.734375 -11.316406 4.5625 -11.53125 5.53125 -11.53125 C 6.78125 -11.53125 7.753906 -11.210938 8.453125 -10.578125 C 9.148438 -9.953125 9.578125 -9.109375 9.734375 -8.046875 L 8.21875 -8.046875 C 8.101562 -8.722656 7.828125 -9.269531 7.390625 -9.6875 C 6.960938 -10.101562 6.34375 -10.3125 5.53125 -10.3125 C 4.507812 -10.3125 3.742188 -9.945312 3.234375 -9.21875 C 2.734375 -8.5 2.484375 -7.476562 2.484375 -6.15625 L 2.484375 -5.25 C 2.484375 -4.382812 2.613281 -3.632812 2.875 -3 C 3.144531 -2.375 3.523438 -1.894531 4.015625 -1.5625 C 4.503906 -1.226562 5.070312 -1.0625 5.71875 -1.0625 C 6.425781 -1.0625 6.96875 -1.140625 7.34375 -1.296875 C 7.71875 -1.460938 8.007812 -1.660156 8.21875 -1.890625 L 8.21875 -4.453125 L 5.59375 -4.453125 L 5.59375 -5.671875 L 9.734375 -5.671875 Z M 9.734375 -1.5 "/></g></g></g><g fill="#000000" fill-opacity="1"><g transform="translate(311.122969, 223.868364)"><g><path d="M 7.609375 -2.984375 L 2.859375 -2.984375 L 1.78125 0 L 0.21875 0 L 4.5625 -11.375 L 5.890625 -11.375 L 10.25 0 L 8.6875 0 Z M 7.15625 -4.203125 L 5.234375 -9.515625 L 3.3125 -4.203125 Z M 7.15625 -4.203125 "/></g></g></g><g fill="#000000" fill-opacity="1"><g transform="translate(321.573542, 223.868364)"><g><path d="M 8.546875 0 L 2.84375 -8.796875 L 2.84375 0 L 1.328125 0 L 1.328125 -11.375 L 2.84375 -11.375 L 8.578125 -2.5625 L 8.578125 -11.375 L 10.078125 -11.375 L 10.078125 0 Z M 8.546875 0 "/></g></g></g><g fill="#000000" fill-opacity="1"><g transform="translate(332.984822, 223.868364)"><g><path d="M 9.703125 -3.609375 C 9.617188 -2.867188 9.40625 -2.21875 9.0625 -1.65625 C 8.726562 -1.09375 8.25 -0.648438 7.625 -0.328125 C 7.007812 -0.00390625 6.257812 0.15625 5.375 0.15625 C 4.5 0.15625 3.722656 -0.0625 3.046875 -0.5 C 2.378906 -0.9375 1.859375 -1.550781 1.484375 -2.34375 C 1.117188 -3.144531 0.9375 -4.066406 0.9375 -5.109375 L 0.9375 -6.265625 C 0.9375 -7.316406 1.117188 -8.238281 1.484375 -9.03125 C 1.859375 -9.832031 2.390625 -10.445312 3.078125 -10.875 C 3.773438 -11.3125 4.585938 -11.53125 5.515625 -11.53125 C 6.359375 -11.53125 7.078125 -11.375 7.671875 -11.0625 C 8.273438 -10.75 8.742188 -10.304688 9.078125 -9.734375 C 9.410156 -9.160156 9.617188 -8.492188 9.703125 -7.734375 L 8.1875 -7.734375 C 8.0625 -8.578125 7.789062 -9.21875 7.375 -9.65625 C 6.96875 -10.09375 6.347656 -10.3125 5.515625 -10.3125 C 4.859375 -10.3125 4.300781 -10.144531 3.84375 -9.8125 C 3.382812 -9.476562 3.035156 -9.007812 2.796875 -8.40625 C 2.566406 -7.800781 2.453125 -7.09375 2.453125 -6.28125 L 2.453125 -5.109375 C 2.453125 -4.335938 2.554688 -3.644531 2.765625 -3.03125 C 2.984375 -2.425781 3.3125 -1.945312 3.75 -1.59375 C 4.1875 -1.238281 4.726562 -1.0625 5.375 -1.0625 C 6 -1.0625 6.5 -1.160156 6.875 -1.359375 C 7.257812 -1.554688 7.550781 -1.835938 7.75 -2.203125 C 7.945312 -2.578125 8.09375 -3.046875 8.1875 -3.609375 Z M 9.703125 -3.609375 "/></g></g></g><g fill="#000000" fill-opacity="1"><g transform="translate(343.396347, 223.868364)"><g><path d="M 8.546875 -1.21875 L 8.546875 0 L 1.328125 0 L 1.328125 -11.375 L 8.46875 -11.375 L 8.46875 -10.15625 L 2.84375 -10.15625 L 2.84375 -6.484375 L 7.75 -6.484375 L 7.75 -5.265625 L 2.84375 -5.265625 L 2.84375 -1.21875 Z M 8.546875 -1.21875 "/></g></g></g></svg>